<?xml version="1.0" encoding="UTF-8"?>
<svg width="100%" height="100%" viewBox="0 0 750 1334" version="1.1" xmlns="http://www.w3.org/2000/svg" xmlns:xlink="http://www.w3.org/1999/xlink">
    <!-- Generator: Sketch 60 (88103) - https://sketch.com -->
    <title>加载占位图</title>
    <desc>Created with Sketch.</desc>
    <g id="加载占位图" stroke="none" stroke-width="1" fill="none" fill-rule="evenodd">
        <rect fill="#FFFFFF" x="0" y="0" width="750" height="1334"></rect>
        <rect id="矩形" fill="#F4F4F4" x="40" y="132" width="200" height="60" rx="30"></rect>
        <rect id="矩形" fill="#F4F4F4" x="40" y="264" width="671" height="300" rx="30"></rect>
        <g id="编组" transform="translate(40.000000, 644.000000)">
            <rect id="矩形" fill="#F4F4F4" x="0" y="0" width="670" height="830" rx="30"></rect>
            <rect id="矩形" fill="#E7E7E7" x="40" y="602" width="590" height="188" rx="20"></rect>
            <rect id="矩形备份" fill="#E7E7E7" x="40" y="50" width="337" height="40" rx="20"></rect>
            <rect id="矩形" fill="#E7E7E7" x="100" y="120" width="101" height="40" rx="20"></rect>
            <circle id="椭圆形" fill="#E7E7E7" cx="60" cy="140" r="20"></circle>
            <rect id="矩形备份-2" fill="#E7E7E7" x="40" y="220" width="590" height="25" rx="12.5"></rect>
            <rect id="矩形备份-3" fill="#E7E7E7" x="40" y="269" width="590" height="25" rx="12.5"></rect>
            <rect id="矩形备份-4" fill="#E7E7E7" x="40" y="318" width="337" height="25" rx="12.5"></rect>
            <rect id="矩形备份-6" fill="#E7E7E7" x="40" y="542" width="200" height="40" rx="20"></rect>
        </g>
    </g>
</svg>